<svg viewBox="0 0 256 256" width="256" height="256" stroke-dasharray="none" stroke-miterlimit="10" version="1.1" xmlns="http://www.w3.org/2000/svg" xmlns:xlink="http://www.w3.org/1999/xlink">
  <g opacity="1" stroke-width="0" fill="none" transform="matrix(2.81, 0, 0, 2.81, 1.406593, 1.406593)">
    <path opacity="1" fill="currentColor" d="M45 90c-0.103 0-0.206-0.016-0.305-0.048C22.633 82.896 7.224 60.197 7.224 34.753V14.955c0-0.552 0.448-1 1-1 7.144 0 12.955-5.812 12.955-12.955 0-0.552 0.448-1 1-1H67.82c0.553 0 1 0.448 1 1 0 7.144 5.813 12.955 12.956 12.955 0.553 0 1 0.448 1 1v19.798c0 25.444-15.409 48.144-37.472 55.199C45.206 89.984 45.103 90 45 90zM9.224 15.922v18.831c0 24.468 14.694 46.291 35.776 53.196 21.082-6.905 35.776-28.729 35.776-53.196V15.922C73.325 15.427 67.348 9.451 66.854 2H23.146c-0.495 7.451-6.471 13.427-13.922 13.922z" />
  </g>
  <g>
    <path opacity="1" d="M73.5071 148.5c-2.2694 0-4.1112-1.7152-4.1112-3.8286l0-67.3428c0-2.1134 1.8418-3.8286 4.1112-3.8286 2.2693 0 4.1111 1.7152 4.1111 3.8286l0 67.3428c0 2.1153-1.8418 3.8286-4.1111 3.8286z" />
    <path opacity="1" d="M73.5071 148.5c-2.2694 0-4.1112-1.7152-4.1112-3.8286l0-67.3428c0-2.1134 1.8418-3.8286 4.1112-3.8286 2.2693 0 4.1111 1.7152 4.1111 3.8286l0 67.3428c0 2.1153-1.8418 3.8286-4.1111 3.8286z" />
    <path opacity="1" d="M56.7831 137.378c-2.2694 0-4.1112-1.7152-4.1112-3.8286l0-45.0969c0-2.1134 1.8418-3.8286 4.1112-3.8286 2.2693 0 4.1111 1.7152 4.1111 3.8286l0 45.0969c0 2.1134-1.8398 3.8286-4.1111 3.8286z" />
    <path opacity="1" d="M56.7831 137.378c-2.2694 0-4.1112-1.7152-4.1112-3.8286l0-45.0969c0-2.1134 1.8418-3.8286 4.1112-3.8286 2.2693 0 4.1111 1.7152 4.1111 3.8286l0 45.0969c0 2.1134-1.8398 3.8286-4.1111 3.8286z" />
    <path opacity="1" d="M40.0611 126.2521c-2.2693 0-4.1111-1.7152-4.1111-3.8286V99.5746c0-2.1134 1.8418-3.8286 4.1111-3.8286 2.2693 0 4.1111 1.7152 4.1111 3.8286l0 22.8489c0 2.1134-1.8418 3.8286-4.1111 3.8286z" />
    <path opacity="1" d="M40.0611 126.2521c-2.2693 0-4.1111-1.7152-4.1111-3.8286V99.5746c0-2.1134 1.8418-3.8286 4.1111-3.8286 2.2693 0 4.1111 1.7152 4.1111 3.8286l0 22.8489c0 2.1134-1.8418 3.8286-4.1111 3.8286z" />
    <path opacity="1" d="M183.3929 148.5c-2.2693 0-4.1111-1.7152-4.1111-3.8286l0-67.3428c0-2.1134 1.8418-3.8286 4.1111-3.8286 2.2694 0 4.1112 1.7152 4.1112 3.8286l0 67.3428c0 2.1153-1.8398 3.8286-4.1112 3.8286z" />
    <path opacity="1" d="M183.3929 148.5c-2.2693 0-4.1111-1.7152-4.1111-3.8286l0-67.3428c0-2.1134 1.8418-3.8286 4.1111-3.8286 2.2694 0 4.1112 1.7152 4.1112 3.8286l0 67.3428c0 2.1153-1.8398 3.8286-4.1112 3.8286z" />
    <path opacity="1" d="M200.1169 137.378c-2.2693 0-4.1111-1.7152-4.1111-3.8286l0-45.0969c0-2.1134 1.8418-3.8286 4.1111-3.8286 2.2694 0 4.1112 1.7152 4.1112 3.8286l0 45.0969c0 2.1134-1.8398 3.8286-4.1112 3.8286z" />
    <path opacity="1" d="M200.1169 137.378c-2.2693 0-4.1111-1.7152-4.1111-3.8286l0-45.0969c0-2.1134 1.8418-3.8286 4.1111-3.8286 2.2694 0 4.1112 1.7152 4.1112 3.8286l0 45.0969c0 2.1134-1.8398 3.8286-4.1112 3.8286z" />
    <path opacity="1" d="M216.8389 126.2521c-2.2693 0-4.1111-1.7152-4.1111-3.8286l0-22.8489c0-2.1134 1.8418-3.8286 4.1111-3.8286 2.2693 0 4.1111 1.7152 4.1111 3.8286v22.8489c0 2.1134-1.8418 3.8286-4.1111 3.8286z" />
    <path opacity="1" d="M216.8389 126.2521c-2.2693 0-4.1111-1.7152-4.1111-3.8286l0-22.8489c0-2.1134 1.8418-3.8286 4.1111-3.8286 2.2693 0 4.1111 1.7152 4.1111 3.8286v22.8489c0 2.1134-1.8418 3.8286-4.1111 3.8286z" />
    <path opacity="1" d="M183.3929 114.8276l-109.8858 0c-2.2694 0-4.1112-1.7152-4.1112-3.8286 0-2.1133 1.8418-3.8285 4.1112-3.8285l109.8879 0c2.2693 0 4.1111 1.7152 4.1111 3.8285 0 2.1134-1.8418 3.8286-4.1132 3.8286z" />
  </g>
</svg>